<?xml version="1.0" encoding="utf-8"?>
<!-- Generator: Adobe Illustrator 24.1.2, SVG Export Plug-In . SVG Version: 6.00 Build 0)  -->
<svg version="1.1" id="Layer_1" xmlns="http://www.w3.org/2000/svg" xmlns:xlink="http://www.w3.org/1999/xlink" x="0px" y="0px"
	 viewBox="0 0 507.3 57.7" style="enable-background:new 0 0 507.3 57.7;" xml:space="preserve">
<style type="text/css">
	.st0{fill:#1A1A1A;}
	.st1{fill:#C1272D;}
</style>
<path class="st0" d="M0,57.7L16.2,1.6H29l16.2,56.1H33.9L23,15.3h-0.7l-11,42.4H0z M8.2,47.1v-9.6h28.4v9.6H8.2z"/>
<path class="st0" d="M47.5,57.7l-6-56.1h10.3l3.4,46.8h1.1l4.2-32.6h9.2l-3.3,10.8h-1.6l-3.2,31.1H47.5z M68.5,57.7l-3.2-31.1h-1.6
	l-3.2-10.8h9.2l4.1,32.6H75l3.4-46.8h10.3l-6,56.1H68.5z"/>
<path class="st0" d="M91,57.7V1.6h10.4v56.1H91z M91,11.2V1.6h38.5v9.6H91z M91,34.4v-9.6h31.4v9.6H91z M91,57.7v-9.6h38.5v9.6H91z"
	/>
<path class="st0" d="M148.5,57.7c-3.2,0-6.3-0.3-9.3-0.8c-3-0.5-5.7-1.3-8.1-2.3l1.4-10.7c2.9,1.2,5.8,2.1,8.6,2.8
	c2.9,0.7,5.5,1,7.9,1c2.8,0,5-0.5,6.5-1.5c1.5-1,2.3-2.4,2.3-4.3c0-2.4-1.5-4.4-4.6-5.8l-8.1-3.9c-4-1.9-7.1-4.4-9.2-7.2
	c-2.2-2.9-3.3-6-3.3-9.5c0-4.9,1.6-8.7,4.9-11.4s7.8-4,13.8-4c3.5,0,6.7,0.6,9.8,1.8c3.1,1.2,5.8,3,8.2,5.3l-7.2,8.3
	c-1.8-1.7-3.6-3.1-5.5-4c-1.8-0.9-3.6-1.4-5.3-1.4c-2.3,0-4.1,0.5-5.4,1.5c-1.3,1-1.9,2.4-1.9,4.3c0,1.2,0.5,2.4,1.4,3.5
	c0.9,1.1,2.2,2.1,3.9,3l7.6,3.9c4,2.1,7,4.5,9.1,7.2c2.1,2.7,3.2,5.7,3.2,8.8c0,5-1.8,8.8-5.4,11.5
	C160.2,56.3,155.1,57.7,148.5,57.7z"/>
<path class="st0" d="M191.4,57.7c-14.3,0-21.4-9.5-21.4-28.4c0-19.5,7.1-29.2,21.4-29.2c14.3,0,21.4,9.7,21.4,29.2
	C212.8,48.2,205.7,57.7,191.4,57.7z M191.4,47.7c7,0,10.4-6.2,10.4-18.5c0-12.9-3.5-19.3-10.4-19.3S181,16.4,181,29.2
	C181,41.6,184.5,47.7,191.4,47.7z"/>
<path class="st0" d="M214.6,57.7V1.6h9.7v56.1H214.6z M230.3,38.1l-4.7-26.5h-2.5l0.6-10h5.8l4.1,25.1h0.3l1.1,11.4H230.3z
	 M232.6,38.1l1.2-11.4h0.5l4.1-25.1h5.8l0.6,10h-2.5l-4.7,26.5H232.6z M243.5,57.7V1.6h9.7v56.1H243.5z"/>
<path class="st0" d="M255.8,57.7V1.6h10.4v56.1H255.8z M255.8,11.2V1.6h38.5v9.6H255.8z M255.8,34.4v-9.6h31.4v9.6H255.8z
	 M255.8,57.7v-9.6h38.5v9.6H255.8z"/>
<path class="st1" d="M296.8,57.7V1.6h10.4v56.1H296.8z M304,30.1v-3.9h15.6v3.9H304z M306.7,27.4v-4.2h7.6c2.5,0,4.3-0.5,5.6-1.6
	c1.3-1.1,1.9-2.6,1.9-4.7c0-1.9-0.7-3.3-2-4.3c-1.3-1-3.3-1.4-6-1.4h-6.9l-0.9-9.6h8.3c5.9,0,10.5,1.2,13.7,3.6
	c3.2,2.4,4.8,5.8,4.8,10.3c0,3.8-1.3,6.8-3.8,8.8c-2.5,2.1-6,3.1-10.6,3.1H306.7z M306.7,57.7v-9.6h10c2.8,0,5.1-0.7,6.6-2
	c1.6-1.3,2.4-3.2,2.4-5.7c0-2.4-0.8-4.3-2.5-5.6c-1.7-1.3-4-2-7.1-2h-9.3l-0.9-4.2h15.5c4.9,0,8.6,1.2,11.3,3.6c2.6,2.4,4,5.7,4,10
	c0,4.9-1.5,8.7-4.6,11.4c-3.1,2.7-7.4,4-13.1,4H306.7z"/>
<path class="st1" d="M358.8,57.7c-14.3,0-21.4-9.5-21.4-28.4c0-19.5,7.1-29.2,21.4-29.2c14.3,0,21.4,9.7,21.4,29.2
	C380.2,48.2,373.1,57.7,358.8,57.7z M358.8,47.7c7,0,10.4-6.2,10.4-18.5c0-12.9-3.5-19.3-10.4-19.3c-7,0-10.4,6.4-10.4,19.3
	C348.4,41.6,351.9,47.7,358.8,47.7z"/>
<path class="st1" d="M403.1,57.7c-14.3,0-21.4-9.5-21.4-28.4c0-19.5,7.1-29.2,21.4-29.2c14.3,0,21.4,9.7,21.4,29.2
	C424.5,48.2,417.4,57.7,403.1,57.7z M403.1,47.7c7,0,10.4-6.2,10.4-18.5c0-12.9-3.5-19.3-10.4-19.3c-7,0-10.4,6.4-10.4,19.3
	C392.7,41.6,396.2,47.7,403.1,47.7z"/>
<path class="st1" d="M426.1,57.7V1.6h10.4v56.1H426.1z M431.7,39.8l0.7-10.5c3.7,0,7-0.8,9.7-2.3c2.7-1.6,5-3.6,6.8-6.3
	c1.8-2.6,3.1-5.6,4-8.9c0.9-3.3,1.3-6.7,1.3-10.3h10.6c0,5-0.7,9.8-2.2,14.3c-1.5,4.6-3.6,8.7-6.5,12.3c-2.8,3.6-6.3,6.4-10.4,8.5
	C441.6,38.8,436.9,39.8,431.7,39.8z M454.5,57.7l-11.3-24.9l9.7-4l14.4,28.9H454.5z"/>
<path class="st1" d="M486.5,57.7c-3.2,0-6.3-0.3-9.3-0.8c-3-0.5-5.7-1.3-8.1-2.3l1.4-10.7c2.9,1.2,5.8,2.1,8.6,2.8
	c2.9,0.7,5.5,1,7.9,1c2.8,0,5-0.5,6.5-1.5c1.5-1,2.3-2.4,2.3-4.3c0-2.4-1.5-4.4-4.6-5.8l-8.1-3.9c-4-1.9-7.1-4.4-9.2-7.2
	c-2.2-2.9-3.3-6-3.3-9.5c0-4.9,1.6-8.7,4.9-11.4c3.2-2.7,7.8-4,13.8-4c3.5,0,6.7,0.6,9.8,1.8c3.1,1.2,5.8,3,8.2,5.3l-7.2,8.3
	c-1.8-1.7-3.6-3.1-5.5-4c-1.8-0.9-3.6-1.4-5.3-1.4c-2.3,0-4.1,0.5-5.4,1.5c-1.3,1-1.9,2.4-1.9,4.3c0,1.2,0.5,2.4,1.4,3.5
	c0.9,1.1,2.2,2.1,3.9,3l7.6,3.9c4,2.1,7,4.5,9.1,7.2c2.1,2.7,3.2,5.7,3.2,8.8c0,5-1.8,8.8-5.4,11.5
	C498.2,56.3,493.1,57.7,486.5,57.7z"/>
</svg>
